<svg width="48" height="48" viewBox="0 0 48 48" xmlns="http://www.w3.org/2000/svg">
  <!-- Background -->
  <rect width="48" height="48" fill="#FFFFFF" />

  <!-- Steam Lines -->
  <path d="M24 6c-1.5 0-3 1-3 1s1.5 1.5 3 3c1.5-1.5 3-3 3-3s-1.5-1-3-1z" fill="#F89820" />
  <path d="M22 10c-1.5 0-2 1-2 1s1 1 2 2c1-1 2-2 2-2s-0.5-1-2-1z" fill="#F89820" />
  <path d="M26 12c-1-1-2-1-2 0s1 1.5 2 2c1-0.5 1-1.5 1-2s-0.5-1-1-1z" fill="#F89820" />

  <!-- Cup Base -->
  <path d="M16 28h16c0 6-6 6-8 6s-8 0-8-6z" fill="#5382A1" />
  <ellipse cx="24" cy="26" rx="8" ry="2" fill="#5382A1" />

  <!-- Cup Handle -->
  <path d="M32 26c2 0 4 2 4 4s-2 4-4 4c-1 0-2-.5-3-1s0-2 1-3c1-1 1-2 2-2z" fill="#5382A1" />

  <!-- Java Text -->
  <text x="12" y="44" fill="#000000" font-size="8" font-family="Arial, sans-serif" font-weight="bold">
    JAVA
  </text>
</svg>
